<?xml version="1.0" encoding="UTF-8" standalone="no"?>
<!-- Created with Inkscape (http://www.inkscape.org/) -->

<svg
   xmlns:dc="http://purl.org/dc/elements/1.1/"
   xmlns:cc="http://creativecommons.org/ns#"
   xmlns:rdf="http://www.w3.org/1999/02/22-rdf-syntax-ns#"
   xmlns:svg="http://www.w3.org/2000/svg"
   xmlns="http://www.w3.org/2000/svg"
   xmlns:xlink="http://www.w3.org/1999/xlink"
   xmlns:sodipodi="http://sodipodi.sourceforge.net/DTD/sodipodi-0.dtd"
   xmlns:inkscape="http://www.inkscape.org/namespaces/inkscape"
   width="361.93518mm"
   height="227.20839mm"
   viewBox="0 0 1282.4475 805.06909"
   id="svg2"
   version="1.1"
   inkscape:version="0.91 r13725"
   sodipodi:docname="therelogo.svg"
   inkscape:export-filename="/Users/bussonniermatthias/dev/there/therelogo.png"
   inkscape:export-xdpi="42.110001"
   inkscape:export-ydpi="42.110001">
  <defs
     id="defs4">
    <linearGradient
       inkscape:collect="always"
       id="linearGradient4218">
      <stop
         style="stop-color:#ff4f4f;stop-opacity:1"
         offset="0"
         id="stop4220" />
      <stop
         style="stop-color:#ff7f7f;stop-opacity:0.99607843"
         offset="1"
         id="stop4222" />
    </linearGradient>
    <linearGradient
       inkscape:collect="always"
       xlink:href="#linearGradient4218"
       id="linearGradient4224"
       x1="341.18158"
       y1="345.76273"
       x2="385.1582"
       y2="633.66296"
       gradientUnits="userSpaceOnUse"
       gradientTransform="translate(-435.14545,92.632795)" />
  </defs>
  <sodipodi:namedview
     id="base"
     pagecolor="#ffffff"
     bordercolor="#666666"
     borderopacity="1.0"
     inkscape:pageopacity="0.0"
     inkscape:pageshadow="2"
     inkscape:zoom="0.98994949"
     inkscape:cx="1181.2164"
     inkscape:cy="400.49671"
     inkscape:document-units="px"
     inkscape:current-layer="layer1"
     showgrid="false"
     showguides="true"
     inkscape:guide-bbox="true"
     inkscape:window-width="3081"
     inkscape:window-height="1351"
     inkscape:window-x="359"
     inkscape:window-y="23"
     inkscape:window-maximized="0"
     fit-margin-top="0"
     fit-margin-left="0"
     fit-margin-right="0"
     fit-margin-bottom="0">
    <sodipodi:guide
       position="256.69964,413.32722"
       orientation="0,1"
       id="guide4145" />
  </sodipodi:namedview>
  <metadata
     id="metadata7">
    <rdf:RDF>
      <cc:Work
         rdf:about="">
        <dc:format>image/svg+xml</dc:format>
        <dc:type
           rdf:resource="http://purl.org/dc/dcmitype/StillImage" />
        <dc:title></dc:title>
      </cc:Work>
    </rdf:RDF>
  </metadata>
  <g
     inkscape:label="Layer 1"
     inkscape:groupmode="layer"
     id="layer1"
     transform="translate(749.65409,-159.5847)">
    <g
       id="g4214"
       transform="matrix(1.7227667,0,0,1.7227667,-699.9032,-311.02224)"
       style="stroke:#272727;stroke-opacity:1">
      <path
         sodipodi:nodetypes="scsss"
         inkscape:connector-curvature="0"
         id="path4142"
         d="m 500.7143,428.07651 c 0,67.45764 -79.394,137.60195 -122.14286,297.14286 -42.1672,-157.37013 -122.14286,-229.68522 -122.14286,-297.14286 0,-67.45764 54.68522,-122.14286 122.14286,-122.14286 67.45764,0 122.14286,54.68522 122.14286,122.14286 z"
         style="opacity:0.98799995;fill:url(#linearGradient4224);fill-opacity:1;stroke:#272727;stroke-width:7.9000001;stroke-miterlimit:4;stroke-dasharray:none;stroke-opacity:1" />
      <circle
         r="64.64286"
         cy="427.00507"
         cx="377.5"
         id="path4147"
         style="opacity:0.98799995;fill:#e9afaf;fill-opacity:1;stroke:#272727;stroke-width:7.9000001;stroke-miterlimit:4;stroke-dasharray:none;stroke-opacity:1" />
    </g>
    <path
       style="color:#000000;font-style:normal;font-variant:normal;font-weight:normal;font-stretch:normal;font-size:medium;line-height:normal;font-family:sans-serif;text-indent:0;text-align:start;text-decoration:none;text-decoration-line:none;text-decoration-style:solid;text-decoration-color:#000000;letter-spacing:normal;word-spacing:normal;text-transform:none;direction:ltr;block-progression:tb;writing-mode:lr-tb;baseline-shift:baseline;text-anchor:start;white-space:normal;clip-rule:nonzero;display:inline;overflow:visible;visibility:visible;opacity:0.98799995;isolation:auto;mix-blend-mode:normal;color-interpolation:sRGB;color-interpolation-filters:linearRGB;solid-color:#000000;solid-opacity:1;fill:#000000;fill-opacity:1;fill-rule:nonzero;stroke:#ffffff;stroke-width:8.69999981;stroke-linecap:round;stroke-linejoin:round;stroke-miterlimit:4;stroke-dasharray:none;stroke-dashoffset:0;stroke-opacity:1;color-rendering:auto;image-rendering:auto;shape-rendering:auto;text-rendering:auto;enable-background:accumulate"
       d="m -46.964844,306.72461 c -43.447682,-0.49849 -85.046836,22.2805 -107.501956,61.17383 -27.63706,47.86871 -19.63547,108.64583 19.44922,147.73047 39.084697,39.08463 99.861699,47.08621 147.730471,19.44921 a 24.40244,24.40244 0 1 0 -24.398438,-42.26171 c -28.944946,16.71134 -65.192733,11.94004 -88.826173,-11.69336 -8.00226,-8.00225 -13.651,-17.51156 -17.22656,-27.63282 l 167.244139,0 A 24.40244,24.40244 0 0 0 73.90625,429.08984 c -3e-6,-55.27404 -37.318321,-103.90692 -90.708984,-118.21289 -10.01075,-2.68236 -20.135722,-4.03731 -30.16211,-4.15234 z m -0.664062,48.75977 c 6.035826,0.0807 12.142081,0.90734 18.195312,2.52929 24.0610872,6.44714 42.520547,24.21595 50.378906,46.67774 l -138.820312,0 c 1.49682,-4.23305 3.35698,-8.38646 5.66992,-12.39258 13.577983,-23.51771 38.420926,-37.16409 64.576174,-36.81445 z"
       id="path4177"
       inkscape:connector-curvature="0" />
    <path
       style="color:#000000;font-style:normal;font-variant:normal;font-weight:normal;font-stretch:normal;font-size:medium;line-height:normal;font-family:sans-serif;text-indent:0;text-align:start;text-decoration:none;text-decoration-line:none;text-decoration-style:solid;text-decoration-color:#000000;letter-spacing:normal;word-spacing:normal;text-transform:none;direction:ltr;block-progression:tb;writing-mode:lr-tb;baseline-shift:baseline;text-anchor:start;white-space:normal;clip-rule:nonzero;display:inline;overflow:visible;visibility:visible;opacity:0.98799995;isolation:auto;mix-blend-mode:normal;color-interpolation:sRGB;color-interpolation-filters:linearRGB;solid-color:#000000;solid-opacity:1;fill:#000000;fill-opacity:1;fill-rule:nonzero;stroke:#ffffff;stroke-width:8.69999981;stroke-linecap:round;stroke-linejoin:round;stroke-miterlimit:4;stroke-dasharray:none;stroke-dashoffset:0;stroke-opacity:1;color-rendering:auto;image-rendering:auto;shape-rendering:auto;text-rendering:auto;enable-background:accumulate"
       d="m -427.23828,163.9375 a 24.40244,24.40244 0 0 0 -24.0332,24.74414 l 0,258.9082 c -0.11504,2.21006 -0.33118,4.4499 -0.42188,6.64454 -1.22939,29.74697 0.42188,58.28094 0.42188,73.43554 a 24.40244,24.40244 0 0 0 48.80078,0 l 0,-77.54101 c 1.53429,-24.37537 5.96633,-47.5672 12.47461,-58.83985 16.71135,-28.94487 50.48563,-42.93559 82.76953,-34.28515 32.28389,8.65043 54.54101,37.65353 54.54101,71.07617 l 0,99.00195 a 24.40244,24.40244 0 1 0 48.79883,0 l 0,-99.00195 c 0,-55.27404 -37.31832,-103.90888 -90.70898,-118.21485 -38.26813,-10.2539 -78.14557,-1.02379 -107.875,22.60743 l 0,-143.79102 a 24.40244,24.40244 0 0 0 -24.76758,-24.74414 z"
       id="path4180"
       inkscape:connector-curvature="0" />
    <path
       style="color:#000000;font-style:normal;font-variant:normal;font-weight:normal;font-stretch:normal;font-size:medium;line-height:normal;font-family:sans-serif;text-indent:0;text-align:start;text-decoration:none;text-decoration-line:none;text-decoration-style:solid;text-decoration-color:#000000;letter-spacing:normal;word-spacing:normal;text-transform:none;direction:ltr;block-progression:tb;writing-mode:lr-tb;baseline-shift:baseline;text-anchor:start;white-space:normal;clip-rule:nonzero;display:inline;overflow:visible;visibility:visible;opacity:0.98799995;isolation:auto;mix-blend-mode:normal;color-interpolation:sRGB;color-interpolation-filters:linearRGB;solid-color:#000000;solid-opacity:1;fill:#000000;fill-opacity:1;fill-rule:nonzero;stroke:#ffffff;stroke-width:8.69999981;stroke-linecap:round;stroke-linejoin:round;stroke-miterlimit:4;stroke-dasharray:none;stroke-dashoffset:0;stroke-opacity:1;color-rendering:auto;image-rendering:auto;shape-rendering:auto;text-rendering:auto;enable-background:accumulate"
       d="m -720.50781,169.32617 a 24.40244,24.40244 0 1 0 -0.0195,48.79883 l 84.11523,0.0352 0,307.4082 a 24.40244,24.40244 0 1 0 48.79883,0 l 0,-306.62695 87.92969,-0.72657 a 24.40244,24.40244 0 0 0 -0.19141,-48.79882 l -0.21289,0 -220.41992,-0.0899 z"
       id="path4180-7"
       inkscape:connector-curvature="0" />
    <path
       style="color:#000000;font-style:normal;font-variant:normal;font-weight:normal;font-stretch:normal;font-size:medium;line-height:normal;font-family:sans-serif;text-indent:0;text-align:start;text-decoration:none;text-decoration-line:none;text-decoration-style:solid;text-decoration-color:#000000;letter-spacing:normal;word-spacing:normal;text-transform:none;direction:ltr;block-progression:tb;writing-mode:lr-tb;baseline-shift:baseline;text-anchor:start;white-space:normal;clip-rule:nonzero;display:inline;overflow:visible;visibility:visible;opacity:0.98799995;isolation:auto;mix-blend-mode:normal;color-interpolation:sRGB;color-interpolation-filters:linearRGB;solid-color:#000000;solid-opacity:1;fill:#000000;fill-opacity:1;fill-rule:nonzero;stroke:#ffffff;stroke-width:8.69999981;stroke-linecap:round;stroke-linejoin:round;stroke-miterlimit:4;stroke-dasharray:none;stroke-dashoffset:0;stroke-opacity:1;color-rendering:auto;image-rendering:auto;shape-rendering:auto;text-rendering:auto;enable-background:accumulate"
       d="m 407.57227,306.75 c -43.44768,-0.49848 -85.04684,22.2805 -107.50196,61.17383 -27.63706,47.86871 -19.63547,108.64583 19.44922,147.73047 39.0847,39.08463 99.8617,47.08621 147.73047,19.44922 A 24.40244,24.40244 0 1 0 442.84961,492.8418 c -28.94495,16.71134 -65.19078,11.94004 -88.82422,-11.69336 -8.00226,-8.00225 -13.651,-17.51156 -17.22656,-27.63282 l 167.24414,0 a 24.40244,24.40244 0 0 0 24.40039,-24.39843 c 0,-55.27404 -37.31832,-103.90888 -90.70898,-118.21485 -10.01075,-2.68236 -20.13573,-4.03731 -30.16211,-4.15234 z m -0.66407,48.75977 c 6.03583,0.0807 12.14208,0.90734 18.19532,2.52929 24.06107,6.44714 42.51858,24.21596 50.37695,46.67774 l -138.81836,0 c 1.49675,-4.23257 3.35723,-8.3869 5.66992,-12.39258 13.57798,-23.51771 38.42093,-37.16408 64.57617,-36.81445 z"
       id="path4177-0"
       inkscape:connector-curvature="0" />
    <path
       style="color:#000000;font-style:normal;font-variant:normal;font-weight:normal;font-stretch:normal;font-size:medium;line-height:normal;font-family:sans-serif;text-indent:0;text-align:start;text-decoration:none;text-decoration-line:none;text-decoration-style:solid;text-decoration-color:#000000;letter-spacing:normal;word-spacing:normal;text-transform:none;direction:ltr;block-progression:tb;writing-mode:lr-tb;baseline-shift:baseline;text-anchor:start;white-space:normal;clip-rule:nonzero;display:inline;overflow:visible;visibility:visible;opacity:0.98799995;isolation:auto;mix-blend-mode:normal;color-interpolation:sRGB;color-interpolation-filters:linearRGB;solid-color:#000000;solid-opacity:1;fill:#000000;fill-opacity:1;fill-rule:nonzero;stroke:#ffffff;stroke-width:8.69999981;stroke-linecap:round;stroke-linejoin:round;stroke-miterlimit:4;stroke-dasharray:none;stroke-dashoffset:0;stroke-opacity:1;color-rendering:auto;image-rendering:auto;shape-rendering:auto;text-rendering:auto;enable-background:accumulate"
       d="m 121.24219,291.2168 a 24.40244,24.40244 0 0 0 -24.033206,24.74414 l 0,140.65234 c -1.245648,29.15188 0,56.75296 0,71.08203 a 24.40244,24.40244 0 0 0 48.800786,0 l 0,-70.75195 c 0.0174,-0.37312 0.0129,-0.73615 0.0312,-1.10938 1.34081,-27.25599 6.45348,-54.4173 13.45312,-66.54101 16.71136,-28.94487 50.48759,-42.93558 82.77148,-34.28516 a 24.40244,24.40244 0 1 0 12.63086,-47.13672 c -38.7029,-10.37039 -79.05561,-0.81588 -108.88671,23.41602 l 0,-15.32617 A 24.40244,24.40244 0 0 0 121.24219,291.2168 Z"
       id="path4212"
       inkscape:connector-curvature="0" />
  </g>
</svg>
